<?xml version="1.0" encoding="UTF-8" standalone="no"?>
<!DOCTYPE svg PUBLIC "-//W3C//DTD SVG 1.1//EN" "http://www.w3.org/Graphics/SVG/1.1/DTD/svg11.dtd">
<svg width="100%" height="100%" viewBox="0 0 399 440" version="1.1" xmlns="http://www.w3.org/2000/svg" xmlns:xlink="http://www.w3.org/1999/xlink" xml:space="preserve" xmlns:serif="http://www.serif.com/" style="fill-rule:evenodd;clip-rule:evenodd;stroke-linejoin:round;stroke-miterlimit:2;">
    <g transform="matrix(1,0,0,1,-315.346549,-257.18662)">
        <g transform="matrix(1,0,0,1,8.613723,81.382462)">
            <path d="M311.149,610.948C311.017,611.052 310.876,611.176 310.727,611.327C311.583,610.382 311.611,608.864 312.468,607.919C314.112,606.105 315.763,604.296 317.419,602.492L397.723,494.176C399.312,482.358 406.749,427.741 459.78,352.064C500.244,294.32 553.863,244.184 601.373,221.965C604.619,220.447 607.597,219.215 608.144,218.988C608.468,218.854 680.374,184.815 698.207,176.479C700.608,175.356 703.475,176.595 704.348,179.021C704.812,180.312 704.739,182.326 703.186,183.824C696.499,190.27 662.471,220.725 630.744,258.736C598.189,297.738 572.828,338.559 556.707,381.082C556.66,381.205 556.209,382.397 556.09,382.608C556.049,382.681 555.838,383.055 555.438,383.435C550.537,388.093 521.565,414.144 446.696,487.117C439.939,493.702 440.007,493.795 439.367,494.124C438.372,494.636 436.899,494.143 432.709,495.081C425.349,496.728 411.776,502.462 392.796,527.564C378.446,546.542 376.429,544.705 359.92,561.834C356.251,565.641 314.908,608.536 314.041,609.409C313.722,609.729 313.447,609.93 313.194,610.066C312.623,610.796 312.319,611.185 312.315,611.187C311.905,611.474 311.237,611.097 310.826,611.384L311.149,610.948ZM328.137,590.933C337.898,580.496 347.758,570.149 357.518,559.711C374.083,541.994 375.967,543.658 390.452,524.205C412.706,494.319 428.517,490.363 437.22,489.708C485.048,441.806 505.532,421.461 549.741,379.384C549.883,379.25 550.048,379.138 550.165,378.982C550.443,378.612 557.745,356.294 574.435,326.123C604.897,271.058 645.832,226.915 677.064,196.364L612.105,226.937C609.296,228.252 588.078,235.763 556.107,260.625C485.078,315.859 414.401,414.019 402.362,494.794C402.348,494.884 402.297,495.865 401.804,496.499C394.253,506.213 351.749,560.686 328.137,590.933Z" style="fill:rgb(6,0,0);"/>
        </g>
        <g transform="matrix(0.959016,0,0,0.996528,28.53864,63.703097)">
            <path d="M413.237,508.175C414.892,505.086 435.436,466.779 458.924,429.519C483.869,389.948 496.503,376.15 508.257,363.289C548.708,319.028 624.608,250.707 624.651,250.708L625.086,250.715C625.083,250.854 625.18,251.035 625.078,251.134C621.599,254.496 520.997,351.923 493.432,385.828C463.452,422.704 423.579,491.211 414.123,507.848C413.804,508.41 413.834,508.431 413.78,508.451C413.452,508.572 413.568,508.053 413.237,508.175Z" style="fill:rgb(6,0,0);"/>
        </g>
    </g>
</svg>
